<svg width="125" height="34" viewBox="0 0 125 34" fill="none" xmlns="http://www.w3.org/2000/svg">
<path d="M0.24 33L12.48 5H21.76L34 33H24.24L15.2 9.48H18.88L9.84 33H0.24ZM7.52 28.12L9.92 21.32H22.8L25.2 28.12H7.52ZM35.2266 33V3.32H44.2666V33H35.2266ZM48.2734 33V11.12H57.3134V33H48.2734ZM52.7934 9.36C51.1401 9.36 49.8201 8.92 48.8334 8.04C47.8468 7.16 47.3534 6.06667 47.3534 4.76C47.3534 3.45333 47.8468 2.36 48.8334 1.48C49.8201 0.599998 51.1401 0.159998 52.7934 0.159998C54.4468 0.159998 55.7668 0.573332 56.7534 1.4C57.7401 2.22666 58.2334 3.29333 58.2334 4.6C58.2334 5.98666 57.7401 7.13333 56.7534 8.04C55.7668 8.92 54.4468 9.36 52.7934 9.36ZM67.5203 33L58.7203 11.12H68.0003L74.6803 28.88H70.0003L77.1203 11.12H85.6803L76.8803 33H67.5203ZM87.0625 33V11.12H96.1025V33H87.0625ZM91.5825 9.36C89.9292 9.36 88.6092 8.92 87.6225 8.04C86.6358 7.16 86.1425 6.06667 86.1425 4.76C86.1425 3.45333 86.6358 2.36 87.6225 1.48C88.6092 0.599998 89.9292 0.159998 91.5825 0.159998C93.2358 0.159998 94.5558 0.573332 95.5425 1.4C96.5292 2.22666 97.0225 3.29333 97.0225 4.6C97.0225 5.98666 96.5292 7.13333 95.5425 8.04C94.5558 8.92 93.2358 9.36 91.5825 9.36ZM111.669 33.4C109.189 33.4 106.989 32.92 105.069 31.96C103.176 30.9733 101.683 29.6267 100.589 27.92C99.496 26.2133 98.9494 24.2533 98.9494 22.04C98.9494 19.8267 99.496 17.8667 100.589 16.16C101.683 14.4533 103.176 13.12 105.069 12.16C106.989 11.2 109.189 10.72 111.669 10.72C114.149 10.72 116.349 11.2 118.269 12.16C120.189 13.12 121.683 14.4533 122.749 16.16C123.843 17.8667 124.389 19.8267 124.389 22.04C124.389 24.2533 123.843 26.2133 122.749 27.92C121.683 29.6267 120.189 30.9733 118.269 31.96C116.349 32.92 114.149 33.4 111.669 33.4ZM111.669 26.36C112.336 26.36 112.936 26.2 113.469 25.88C114.003 25.56 114.429 25.08 114.749 24.44C115.069 23.7733 115.229 22.9733 115.229 22.04C115.229 21.08 115.069 20.2933 114.749 19.68C114.429 19.04 114.003 18.56 113.469 18.24C112.936 17.92 112.336 17.76 111.669 17.76C111.003 17.76 110.403 17.92 109.869 18.24C109.336 18.56 108.909 19.04 108.589 19.68C108.269 20.2933 108.109 21.08 108.109 22.04C108.109 22.9733 108.269 23.7733 108.589 24.44C108.909 25.08 109.336 25.56 109.869 25.88C110.403 26.2 111.003 26.36 111.669 26.36Z" fill="white"/>
</svg>
